REM DIRINDEX 1\6,1\2\7,1\2\8,1\2\9,1\3\10,1\3\11,1\4\12,1\4\13,1\4\14,1\5\15,1\5\16,1\5\17
REM DIRNAME cjc040,folder01,folder02,folder03,folder04,folder05,folder06,folder07,folder08,folder09,folder10,folder11,folder12,folder13,folder14,folder15,folder16
TITLE ""
FILE "P2Q_j_1324-1337.mp3" MP3
  TRACK 01 AUDIO
    TITLE "12:cjc040_0717"
    INDEX 01 00:00:00
  TRACK 02 AUDIO
    TITLE "0:"
    INDEX 01 00:01:38
  TRACK 03 AUDIO
    TITLE "13:cjc040_0718"
    INDEX 01 00:02:20
  TRACK 04 AUDIO
    TITLE "0:"
    INDEX 01 00:04:23
  TRACK 05 AUDIO
    TITLE "14:cjc040_0719"
    INDEX 01 00:04:72
  TRACK 06 AUDIO
    TITLE "0:"
    INDEX 01 00:09:63
  TRACK 07 AUDIO
    TITLE "12:cjc040_0720"
    INDEX 01 00:10:41
  TRACK 08 AUDIO
    TITLE "0:"
    INDEX 01 00:12:32
  TRACK 09 AUDIO
    TITLE "13:cjc040_0721"
    INDEX 01 00:13:10
  TRACK 10 AUDIO
    TITLE "0:"
    INDEX 01 00:14:47
  TRACK 11 AUDIO
    TITLE "14:cjc040_0722"
    INDEX 01 00:15:25
  TRACK 12 AUDIO
    TITLE "0:"
    INDEX 01 00:20:08
  TRACK 13 AUDIO
    TITLE "12:cjc040_0723"
    INDEX 01 00:20:69
  TRACK 14 AUDIO
    TITLE "0:"
    INDEX 01 00:22:72
  TRACK 15 AUDIO
    TITLE "13:cjc040_0724"
    INDEX 01 00:23:50
  TRACK 16 AUDIO
    TITLE "0:"
    INDEX 01 00:25:29
  TRACK 17 AUDIO
    TITLE "14:cjc040_0725"
    INDEX 01 00:26:05
  TRACK 18 AUDIO
    TITLE "0:"
    INDEX 01 00:29:74
  TRACK 19 AUDIO
    TITLE "12:cjc040_0726"
    INDEX 01 00:30:55
  TRACK 20 AUDIO
    TITLE "0:"
    INDEX 01 00:32:23
  TRACK 21 AUDIO
    TITLE "13:cjc040_0727"
    INDEX 01 00:32:70
  TRACK 22 AUDIO
    TITLE "0:"
    INDEX 01 00:34:26
  TRACK 23 AUDIO
    TITLE "14:cjc040_0728"
    INDEX 01 00:34:73
  TRACK 24 AUDIO
    TITLE "0:"
    INDEX 01 00:40:11
  TRACK 25 AUDIO
    TITLE "12:cjc040_0729"
    INDEX 01 00:40:66
  TRACK 26 AUDIO
    TITLE "0:"
    INDEX 01 00:42:35
  TRACK 27 AUDIO
    TITLE "13:cjc040_0730"
    INDEX 01 00:43:15
  TRACK 28 AUDIO
    TITLE "0:"
    INDEX 01 00:44:44
  TRACK 29 AUDIO
    TITLE "14:cjc040_0731"
    INDEX 01 00:45:18
  TRACK 30 AUDIO
    TITLE "0:"
    INDEX 01 00:49:35
  TRACK 31 AUDIO
    TITLE "12:cjc040_0732"
    INDEX 01 00:50:19
  TRACK 32 AUDIO
    TITLE "0:"
    INDEX 01 00:52:14
  TRACK 33 AUDIO
    TITLE "13:cjc040_0733"
    INDEX 01 00:52:73
  TRACK 34 AUDIO
    TITLE "0:"
    INDEX 01 00:56:72
  TRACK 35 AUDIO
    TITLE "14:cjc040_0734"
    INDEX 01 00:57:52
  TRACK 36 AUDIO
    TITLE "0:"
    INDEX 01 01:02:55
  TRACK 37 AUDIO
    TITLE "12:cjc040_0735"
    INDEX 01 01:03:33
  TRACK 38 AUDIO
    TITLE "0:"
    INDEX 01 01:05:11
  TRACK 39 AUDIO
    TITLE "13:cjc040_0736"
    INDEX 01 01:05:71
  TRACK 40 AUDIO
    TITLE "0:"
    INDEX 01 01:07:63
  TRACK 41 AUDIO
    TITLE "14:cjc040_0737"
    INDEX 01 01:08:42
  TRACK 42 AUDIO
    TITLE "0:"
    INDEX 01 01:12:56
  TRACK 43 AUDIO
    TITLE "12:cjc040_0738"
    INDEX 01 01:13:36
  TRACK 44 AUDIO
    TITLE "0:"
    INDEX 01 01:15:29
  TRACK 45 AUDIO
    TITLE "13:cjc040_0739"
    INDEX 01 01:16:09
  TRACK 46 AUDIO
    TITLE "0:"
    INDEX 01 01:18:11
  TRACK 47 AUDIO
    TITLE "14:cjc040_0740"
    INDEX 01 01:18:64
  TRACK 48 AUDIO
    TITLE "0:"
    INDEX 01 01:25:62
  TRACK 49 AUDIO
    TITLE "12:cjc040_0741"
    INDEX 01 01:26:42
  TRACK 50 AUDIO
    TITLE "0:"
    INDEX 01 01:28:24
  TRACK 51 AUDIO
    TITLE "13:cjc040_0742"
    INDEX 01 01:29:01
  TRACK 52 AUDIO
    TITLE "0:"
    INDEX 01 01:31:14
  TRACK 53 AUDIO
    TITLE "14:cjc040_0743"
    INDEX 01 01:31:67
  TRACK 54 AUDIO
    TITLE "0:"
    INDEX 01 01:37:36
  TRACK 55 AUDIO
    TITLE "12:cjc040_0744"
    INDEX 01 01:38:14
  TRACK 56 AUDIO
    TITLE "0:"
    INDEX 01 01:39:59
  TRACK 57 AUDIO
    TITLE "13:cjc040_0745"
    INDEX 01 01:40:38
  TRACK 58 AUDIO
    TITLE "0:"
    INDEX 01 01:42:59
  TRACK 59 AUDIO
    TITLE "14:cjc040_0746"
    INDEX 01 01:43:41
  TRACK 60 AUDIO
    TITLE "0:"
    INDEX 01 01:46:68
  TRACK 61 AUDIO
    TITLE "12:cjc040_0747"
    INDEX 01 01:47:44
  TRACK 62 AUDIO
    TITLE "0:"
    INDEX 01 01:49:33
  TRACK 63 AUDIO
    TITLE "13:cjc040_0748"
    INDEX 01 01:50:17
  TRACK 64 AUDIO
    TITLE "0:"
    INDEX 01 01:52:08
  TRACK 65 AUDIO
    TITLE "14:cjc040_0749"
    INDEX 01 01:52:59
  TRACK 66 AUDIO
    TITLE "0:"
    INDEX 01 01:59:04
  TRACK 67 AUDIO
    TITLE "12:cjc040_0750"
    INDEX 01 01:59:55
  TRACK 68 AUDIO
    TITLE "0:"
    INDEX 01 02:01:62
  TRACK 69 AUDIO
    TITLE "13:cjc040_0751"
    INDEX 01 02:02:42
  TRACK 70 AUDIO
    TITLE "0:"
    INDEX 01 02:04:57
  TRACK 71 AUDIO
    TITLE "14:cjc040_0752"
    INDEX 01 02:05:36
  TRACK 72 AUDIO
    TITLE "0:"
    INDEX 01 02:10:08
  TRACK 73 AUDIO
    TITLE "12:cjc040_0753"
    INDEX 01 02:10:61
  TRACK 74 AUDIO
    TITLE "0:"
    INDEX 01 02:12:50
  TRACK 75 AUDIO
    TITLE "13:cjc040_0754"
    INDEX 01 02:13:30
  TRACK 76 AUDIO
    TITLE "0:"
    INDEX 01 02:15:29
  TRACK 77 AUDIO
    TITLE "14:cjc040_0755"
    INDEX 01 02:16:05
  TRACK 78 AUDIO
    TITLE "0:"
    INDEX 01 02:21:53
  TRACK 79 AUDIO
    TITLE "12:cjc040_0756"
    INDEX 01 02:22:35
  TRACK 80 AUDIO
    TITLE "0:"
    INDEX 01 02:24:06
  TRACK 81 AUDIO
    TITLE "13:cjc040_0757"
    INDEX 01 02:24:63
  TRACK 82 AUDIO
    TITLE "0:"
    INDEX 01 02:26:03
  TRACK 83 AUDIO
    TITLE "14:cjc040_0758"
    INDEX 01 02:26:58
  TRACK 84 AUDIO
    TITLE "0:"
    INDEX 01 02:30:60
